<?xml version="1.0" encoding="UTF-8"?>
<svg xmlns="http://www.w3.org/2000/svg" width="193" height="107" viewBox="0 0 193 107" fill="none">
  <path d="M0 45.0054H9.03859V47.1506H5.85317V63.4309H3.19424V47.1506H0V45.0054Z" fill="white"></path>
  <path d="M9.79451 49.7018C9.79451 47.1246 10.671 44.853 14.2947 44.853C17.7242 44.853 18.8184 46.5633 18.8184 49.4197V58.7353C18.8184 61.3125 17.936 63.5871 14.2947 63.5871C10.8887 63.5871 9.79451 61.8768 9.79451 59.0174V49.7018ZM12.4593 59.1702C12.4593 60.7512 13.2035 61.5976 14.3065 61.5976C15.4094 61.5976 16.1536 60.7542 16.1536 59.1702V49.4844C16.1536 47.6712 15.5153 46.8337 14.3065 46.8337C13.0976 46.8337 12.4593 47.6742 12.4593 49.4844V59.1702Z" fill="white"></path>
  <path d="M20.7126 45.0054H23.3715V61.2915H27.8452V63.4309H20.7126V45.0054Z" fill="white"></path>
  <path d="M29.0953 45.0059H36.3338V47.1511H31.7542V52.9197H36.0661V55.0591H31.7542V61.2891H36.3338V63.4284H29.0953V45.0029V45.0059Z" fill="white"></path>
  <path d="M37.4809 45.0054H41.6075C45.4959 45.0054 45.89 46.0016 45.89 50.0334C45.89 52.5107 45.543 53.5804 43.3605 54.221V54.271C45.1694 54.4503 45.7842 55.3407 45.7842 57.0804V61.0829C45.7606 61.8675 45.8136 62.655 45.9459 63.4309H43.4429C43.1811 62.9195 43.0723 62.3465 43.1252 61.7764V57.624C43.1252 55.8843 42.8017 55.4288 41.0487 55.4288H40.1251V63.4309H37.4603L37.4779 45.0054H37.4809ZM40.1457 53.2748H40.8369C42.937 53.2748 43.2341 52.8928 43.2341 50.1334C43.2341 47.3739 43.0723 47.1506 41.4252 47.1506H40.1457V53.2748Z" fill="white"></path>
  <path d="M51.3755 45.0054H54.4639L58.3787 63.4544H55.7139L54.8374 58.7584H50.6814L49.8049 63.4544H47.146L51.3755 45.0054ZM51.0843 56.5926H54.4639L52.8168 47.7148H52.7609L51.0843 56.5926Z" fill="white"></path>
  <path d="M59.6553 45.0054H63.326L66.4702 60.3188H66.5202V45.0054H69.0233V63.4544H65.1908L62.0524 47.7354H61.9965V63.4309H59.6553V45.0054Z" fill="white"></path>
  <path d="M70.7028 49.7018C70.7028 47.1246 71.5793 44.853 75.2 44.853C77.8354 44.853 79.059 46.1255 79.059 48.1972V50.0427H76.556V48.7644C76.556 47.5919 76.1324 46.8543 75.0147 46.8543C73.6294 46.8543 73.3617 47.777 73.3617 50.0192V59.0556C73.3617 61.2244 74.0823 61.6064 74.9353 61.6064C75.9177 61.6064 76.556 60.9423 76.556 59.4112V58.1329H79.059V60.1753C79.059 62.1177 78.2325 63.5988 75.15 63.5988C71.794 63.5988 70.7057 61.8885 70.7057 59.0292V49.7048L70.7028 49.7018Z" fill="white"></path>
  <path d="M80.3649 45.0059H87.6034V47.1511H83.0297V52.9197H87.3417V55.0591H83.0297V61.2891H87.6034V63.4284H80.3649V45.0029V45.0059Z" fill="white"></path>
  <path d="M93.7007 45.0054H97.8274C101.71 45.0054 102.11 46.0016 102.11 50.0334C102.11 52.5107 101.763 53.5804 99.5804 54.221V54.271C101.389 54.4503 102.004 55.3407 102.004 57.0804V61.0829C101.98 61.8675 102.033 62.655 102.16 63.4309H99.6627C99.4009 62.9195 99.2892 62.3465 99.3392 61.7764V57.624C99.3392 55.8843 99.0215 55.4288 97.2656 55.4288H96.342V63.4309H93.6978V45.0054H93.7007ZM96.3655 53.2748H97.0538C99.1598 53.2748 99.4539 52.8928 99.4539 50.1334C99.4539 47.3739 99.2921 47.1506 97.6391 47.1506H96.3655V53.2748Z" fill="white"></path>
  <path d="M103.978 45.0054H106.642V63.4544H103.978V45.0054Z" fill="white"></path>
  <path d="M108.528 45.0054H112.222L115.36 60.3188H115.416V45.0054H117.919V63.4544H114.084L110.946 47.7354H110.896V63.4309H108.551L108.534 45.0054H108.528Z" fill="white"></path>
  <path d="M126.07 49.8718V48.949C126.07 47.6472 125.405 46.8596 124.367 46.8596C123.143 46.8596 122.519 47.9293 122.519 49.8953V59.1844C122.519 60.6655 123.267 61.6118 124.367 61.6118C124.94 61.6118 125.511 61.553 126.07 61.4325V56.0077H124.311V53.8625H128.734V63.1281C127.287 63.422 125.817 63.5748 124.34 63.5895C120.961 63.5895 119.872 61.8792 119.872 59.0199V49.7043C119.872 46.2602 120.961 44.8555 124.396 44.8555C127.243 44.8555 128.734 45.8517 128.734 48.1997V49.8747H126.07V49.8718Z" fill="white"></path>
  <path d="M130.411 58.1002H133.076V59.6048C133.076 60.8303 133.538 61.5972 134.617 61.5972C136.029 61.5972 136.376 60.6745 136.376 59.4814C136.376 57.9239 136.297 57.4096 133.529 54.7825C131.826 53.1486 130.414 51.6704 130.414 49.1696C130.414 46.1575 131.879 44.8586 134.782 44.8586C135.908 44.8057 137.014 45.1701 137.894 45.8783C138.355 46.2897 138.67 46.9245 138.67 48.2263V49.966H136.167V48.4937C136.167 47.4475 135.705 46.8392 134.676 46.8392C133.646 46.8392 133.079 47.424 133.079 48.8552C133.079 50.1041 133.346 50.8711 135.794 53.319C138.402 55.9197 138.882 56.816 138.882 59.0377C138.882 61.9205 137.708 63.5808 134.543 63.5808C132.096 63.5808 130.417 62.5846 130.417 60.2866V58.1061L130.411 58.1002Z" fill="white"></path>
  <g opacity="0.8">
    <path d="M20.7537 32.6958L16.9507 37.2566H4.26193L0.500015 32.6458V17.2472H5.51198V32.781H15.7006V17.2148H20.7567V32.6987L20.7537 32.6958Z" fill="white"></path>
    <path d="M45.9694 31.1089L42.1664 37.2566H22.7274L26.4216 32.7722H39.1662L40.3575 31.1177L39.1486 29.3104H26.4128L22.7185 23.3802L26.5216 17.2148H45.9694L42.2252 21.6993H29.4835L28.2599 23.4154L29.4835 25.2609H42.2752L45.9694 31.1148V31.1089Z" fill="white"></path>
    <path d="M68.2703 37.2004H63.2201V31.4582H53.0286V37.2327H47.9843V21.6519L51.7873 17.1675H64.4761L68.2792 21.6519L68.2703 37.2004ZM63.2201 27.0532V21.6372H53.0286V27.0385L63.2201 27.0532Z" fill="white"></path>
  </g>
  <path d="M192.769 50.219C192.769 50.219 192.769 50.2013 192.769 50.1955C191.016 22.0606 167.565 0 139.379 0L139.355 0.017632C138.235 0.017632 137.094 0.0558348 135.967 0.123424C125.823 0.828706 116.066 4.30222 107.76 10.1649C99.1539 16.2391 92.9889 24.2147 89.9094 33.2246C89.7241 33.6478 89.2446 34.9908 89.7447 36.2044C90.0329 36.895 90.6006 37.4328 91.3036 37.6855C91.633 37.8119 91.983 37.8795 92.3389 37.8795C93.9419 37.8795 95.0449 36.4954 95.4419 35.1113C95.7478 34.2267 96.092 33.3569 96.4596 32.4988C96.7096 32.3107 97.0391 32.2666 97.5979 32.1961L97.6832 32.1843C97.9303 32.152 98.2303 32.1461 98.545 32.1373C99.7009 32.1079 101.139 32.0727 101.969 30.8326C102.754 29.6571 102.11 28.0232 101.589 26.7096C101.439 26.3305 101.298 25.972 101.216 25.6899C101.095 25.2226 101.077 24.7789 101.154 24.4174C101.716 23.671 102.304 22.9363 102.922 22.2222C103.245 22.0107 103.622 22.0518 104.263 22.1517C104.386 22.1723 104.513 22.1899 104.642 22.2075C104.886 22.2399 105.169 22.3045 105.469 22.3721C106.036 22.4985 106.669 22.6425 107.298 22.6425C107.928 22.6425 108.587 22.4897 109.134 22.0107C110.198 21.0791 109.998 19.3365 109.837 17.9377C109.79 17.5321 109.745 17.1501 109.74 16.8562C109.745 16.3067 109.975 15.7865 110.372 15.4075C110.837 15.0695 111.307 14.7374 111.79 14.4142C111.978 14.2878 112.172 14.1673 112.36 14.0439C112.796 13.894 113.216 14.0469 113.928 14.3437L113.999 14.373C114.228 14.47 114.49 14.6111 114.763 14.7639C115.484 15.1577 116.328 15.619 117.24 15.619C117.613 15.619 117.999 15.5426 118.39 15.3487C119.663 14.7198 119.919 12.9801 120.125 11.5813C120.184 11.1816 120.24 10.8026 120.308 10.5175C120.408 10.1561 120.605 9.83574 120.872 9.58595C121.699 9.248 122.531 8.93063 123.372 8.63676C124.04 8.4575 124.322 8.6779 125.005 9.20686L125.028 9.22449C125.228 9.3773 125.443 9.58301 125.673 9.80047C126.408 10.4999 127.302 11.3492 128.502 11.3492C128.67 11.3492 128.84 11.3315 129.02 11.2963C130.408 11.0171 131.108 9.40375 131.667 8.10486C131.829 7.73165 131.979 7.38195 132.117 7.12628C132.379 6.68548 132.879 6.36223 133.496 6.23292C134.188 6.14183 134.879 6.06836 135.573 6.00371C136.182 6.00959 136.446 6.32696 136.982 7.03224L137.032 7.09689C137.185 7.29672 137.341 7.55239 137.505 7.81981C138.108 8.80426 138.855 10.0297 140.347 10.1267C140.394 10.1296 140.438 10.1325 140.485 10.1325C141.826 10.1325 142.873 8.81308 143.72 7.74634C143.976 7.42309 144.217 7.1204 144.423 6.90294C144.838 6.49447 145.52 6.22411 146.079 6.25056C146.77 6.34459 147.459 6.45626 148.141 6.58263C148.603 6.73544 148.762 7.09102 149.023 7.78454C149.071 7.90503 149.115 8.02845 149.168 8.15188C149.265 8.38697 149.347 8.67202 149.438 8.97471C149.765 10.0826 150.171 11.4608 151.588 11.9398C151.812 12.0162 152.038 12.0515 152.265 12.0515C153.391 12.0515 154.527 11.2081 155.471 10.5087C155.8 10.2648 156.109 10.0356 156.362 9.88276C156.836 9.61534 157.533 9.42726 158.071 9.5742C158.747 9.86219 159.412 10.1678 160.071 10.4852C160.459 10.7232 160.509 11.0876 160.571 11.7988C160.586 11.9663 160.597 12.1367 160.621 12.3101C160.653 12.554 160.659 12.8479 160.668 13.1594C160.694 14.2555 160.733 15.7601 161.977 16.5917C162.371 16.8562 162.818 16.9591 163.289 16.9591C164.215 16.9591 165.227 16.5594 166.098 16.2156C166.477 16.0657 166.836 15.9247 167.118 15.8394C167.636 15.7072 168.342 15.6778 168.824 15.9658C169.41 16.4272 169.986 16.9062 170.548 17.394C170.866 17.7202 170.824 18.0523 170.698 18.7429C170.665 18.9133 170.633 19.0896 170.61 19.2718C170.574 19.5216 170.504 19.8125 170.43 20.1182C170.157 21.2407 169.818 22.6395 170.807 23.7621C171.739 24.823 173.48 24.6202 174.88 24.4586C175.286 24.4116 175.672 24.3675 175.966 24.3616C176.63 24.3675 177.248 24.6114 177.589 24.9934C178.01 25.5576 178.416 26.1307 178.81 26.7155H178.807C179.075 27.1533 178.936 27.5001 178.625 28.1819C178.563 28.3141 178.501 28.4493 178.442 28.5903C178.345 28.8225 178.201 29.084 178.051 29.3603C177.498 30.3741 176.807 31.6378 177.472 32.9807C178.098 34.2473 179.839 34.503 181.239 34.7087C181.642 34.7674 182.022 34.8233 182.304 34.8909C182.91 35.0613 183.422 35.4404 183.663 35.89C183.922 36.5453 184.169 37.2124 184.401 37.8824C184.545 38.4114 184.292 38.767 183.792 39.3958C183.731 39.4752 183.666 39.5545 183.601 39.6368C183.448 39.8366 183.242 40.0512 183.022 40.2804C182.225 41.115 181.234 42.1553 181.525 43.6246C181.804 45.0087 183.413 45.7052 184.704 46.2635C185.081 46.4251 185.437 46.5809 185.698 46.722C186.225 47.0305 186.598 47.5301 186.704 48.0591C186.781 48.7438 186.843 49.4314 186.893 50.1249C186.901 50.7009 186.587 50.9625 185.931 51.4503L185.722 51.606C185.522 51.7559 185.269 51.9117 185.001 52.0733C184.013 52.6757 182.784 53.4251 182.687 54.9209C182.592 56.3314 183.975 57.4275 185.084 58.3033C185.401 58.5531 185.701 58.7911 185.913 58.9909C186.325 59.4111 186.537 59.9695 186.498 60.5249C186.393 61.2419 186.272 61.9531 186.134 62.6613C185.987 63.1903 185.684 63.3313 184.963 63.6134C184.863 63.6516 184.763 63.6928 184.66 63.7339C184.428 63.828 184.142 63.9103 183.842 63.9984C182.731 64.3246 181.348 64.7272 180.863 66.1495C180.41 67.4896 181.46 68.9031 182.304 70.0344C182.545 70.3606 182.775 70.6663 182.928 70.916C183.169 71.3451 183.242 71.8417 183.142 72.3178C182.828 73.0466 182.495 73.7666 182.148 74.4748C181.866 74.9832 181.557 75.0449 180.725 75.1419L180.492 75.1712C180.245 75.2036 179.945 75.2094 179.631 75.2183C178.475 75.2477 177.039 75.2829 176.204 76.523C175.419 77.6985 176.066 79.3295 176.586 80.6431C176.736 81.0251 176.88 81.3836 176.963 81.6657C177.116 82.2652 176.851 82.8382 176.589 83.2291C176.142 83.7874 175.683 84.337 175.21 84.8747C174.766 85.3185 174.439 85.2744 173.61 85.1598L173.53 85.148C173.28 85.1128 172.992 85.0452 172.683 84.9688C171.56 84.6984 170.16 84.3605 169.033 85.3449C167.971 86.2765 168.174 88.0191 168.336 89.4209C168.383 89.8264 168.427 90.2114 168.433 90.5052C168.43 90.9402 168.201 91.3398 167.709 91.7865C167.092 92.2449 166.462 92.6887 165.821 93.1177C165.304 93.4086 165.012 93.3175 164.203 92.9796C163.974 92.8826 163.715 92.7416 163.439 92.5917C162.421 92.0363 161.156 91.3457 159.806 92.0069C158.541 92.6328 158.283 94.3667 158.077 95.7596C158.015 96.1651 157.959 96.5501 157.889 96.8351C157.753 97.3259 157.183 97.6462 156.641 97.9078C156.027 98.1487 155.403 98.375 154.774 98.5895C154.097 98.7864 153.865 98.6806 153.156 98.1282C152.956 97.9753 152.741 97.7696 152.512 97.5492C151.677 96.7529 150.632 95.7655 149.165 96.0535C147.779 96.3326 147.085 97.9371 146.526 99.2272C146.362 99.6063 146.209 99.9619 146.065 100.223C145.832 100.617 145.406 100.723 144.735 100.849C144.035 100.929 143.326 100.99 142.617 101.04C141.864 101.055 141.656 100.896 141.164 100.25C141.011 100.05 140.858 99.7973 140.694 99.527C140.091 98.5396 139.341 97.3112 137.844 97.2113C136.426 97.1172 135.341 98.4925 134.461 99.6004C134.208 99.9207 133.97 100.223 133.767 100.435C133.482 100.717 133.002 100.708 132.479 100.67C131.732 100.561 130.99 100.432 130.252 100.288C129.54 100.088 129.296 99.8708 129.02 99.2008C128.926 98.9686 128.843 98.6836 128.755 98.3838C128.429 97.273 128.026 95.8918 126.605 95.4128C125.264 94.9573 123.849 96.0064 122.714 96.8498C122.39 97.0908 122.081 97.32 121.834 97.4699C121.499 97.658 121.149 97.5434 120.561 97.32C120.558 97.32 120.555 97.32 120.552 97.3171C119.869 97.0262 119.196 96.7235 118.528 96.4002C117.843 96.0182 117.655 95.7537 117.566 95.0455C117.534 94.8016 117.528 94.5048 117.522 94.1933C117.496 93.0942 117.46 91.5926 116.213 90.7609C115.037 89.9763 113.404 90.6199 112.093 91.14C111.713 91.2899 111.354 91.4309 111.072 91.5161C110.716 91.6102 110.431 91.4133 109.951 91.0665C109.893 91.0224 109.831 90.9813 109.772 90.9372C109.207 90.4935 108.654 90.0321 108.107 89.5619C107.575 89.0359 107.489 88.7744 107.587 88.0808C107.619 87.8369 107.684 87.5548 107.751 87.2521C108.013 86.1002 108.337 84.669 107.387 83.5935C106.451 82.5297 104.707 82.7295 103.304 82.8911C102.898 82.9382 102.516 82.9822 102.219 82.9881C101.866 82.9852 101.616 82.7119 101.254 82.2652C100.772 81.6275 100.298 80.981 99.848 80.3169C99.4656 79.6821 99.4509 79.45 99.7421 78.7476C99.8392 78.5155 99.9833 78.2539 100.133 77.9777C100.686 76.9638 101.375 75.7031 100.716 74.3661C100.089 73.0936 98.345 72.8379 96.9449 72.6322C96.542 72.5735 96.1626 72.5176 95.8802 72.45C95.5567 72.3589 95.3243 72.0886 95.1125 71.7183L95.0037 71.4832C94.5978 70.3577 93.583 69.2557 92.1595 69.2557C91.7683 69.2557 91.383 69.338 91.0241 69.4908C90.2506 69.7847 89.6505 70.4077 89.3858 71.1893C89.1446 72.0592 89.2564 72.9908 89.7005 73.7754L90.3829 75.3329C99.0097 94.5753 118.134 106.974 139.238 107C140.355 107 141.485 106.962 142.608 106.894C172.127 105.075 194.578 79.6909 192.758 50.1984L192.769 50.219ZM100.26 25.9573C100.36 26.2982 100.51 26.6773 100.669 27.0799C101.101 28.176 101.642 29.5425 101.145 30.283C100.604 31.0912 99.545 31.1205 98.5244 31.1441C98.1803 31.1529 97.8567 31.1617 97.5597 31.1999L97.4773 31.2116C97.3185 31.2322 97.1655 31.2498 97.0155 31.2734C97.9215 29.3515 98.9921 27.503 100.213 25.7369C100.227 25.8104 100.242 25.8838 100.26 25.9573ZM108.851 18.0552C108.987 19.2248 109.154 20.6765 108.484 21.2642C107.787 21.8755 106.675 21.6257 105.695 21.4024C105.375 21.3289 105.072 21.2613 104.783 21.2231C104.66 21.2055 104.539 21.1878 104.425 21.1702C104.266 21.1437 104.098 21.1202 103.933 21.1026C105.404 19.5216 107.019 18.0317 108.763 16.6446C108.757 16.7181 108.751 16.7916 108.748 16.865C108.757 17.2206 108.804 17.6262 108.854 18.0552H108.851ZM119.346 10.2736C119.263 10.6174 119.205 11.0171 119.143 11.4403C118.972 12.6069 118.758 14.0615 117.955 14.4583C117.075 14.8903 116.146 14.3819 115.249 13.8911C114.952 13.7295 114.672 13.5767 114.393 13.4562L114.319 13.4239C114.122 13.3416 113.925 13.2593 113.725 13.1888C115.546 12.0838 117.425 11.0994 119.361 10.2354C119.358 10.2472 119.352 10.2589 119.349 10.2707L119.346 10.2736ZM131.255 6.6414C131.087 6.9529 130.926 7.32317 130.755 7.71695C130.287 8.80132 129.702 10.1502 128.826 10.3265C127.87 10.5146 127.102 9.78872 126.361 9.08638C126.114 8.85128 125.878 8.62794 125.62 8.42811C125.455 8.29881 125.296 8.17833 125.134 8.06666C127.152 7.44366 129.211 6.94996 131.299 6.58263C131.285 6.60614 131.27 6.62377 131.255 6.64728V6.6414ZM143.714 6.21529C143.467 6.4739 143.209 6.79715 142.938 7.13804C142.208 8.05784 141.303 9.20098 140.414 9.14221C139.441 9.07756 138.891 8.17833 138.358 7.30848C138.179 7.01755 138.011 6.74132 137.829 6.50034L137.782 6.43863C137.638 6.24762 137.497 6.05954 137.344 5.88616C138.12 5.84796 138.9 5.81857 139.67 5.81857C141.108 5.81857 142.532 5.88616 143.938 6.01546C143.859 6.07717 143.782 6.14183 143.714 6.21235V6.21529ZM155.853 9.03642C155.547 9.22155 155.221 9.46546 154.874 9.72113C153.927 10.4235 152.753 11.2963 151.906 11.0083C150.979 10.6938 150.679 9.68293 150.391 8.70435C150.294 8.37522 150.203 8.06666 150.088 7.78748C150.041 7.66994 149.997 7.55533 149.953 7.44072C149.888 7.26734 149.821 7.08808 149.741 6.91176C151.968 7.40252 154.138 8.04902 156.238 8.8454C156.103 8.90418 155.971 8.96589 155.853 9.03348V9.03642ZM166.848 14.8903C166.507 14.9902 166.127 15.14 165.724 15.2987C164.63 15.7307 163.265 16.2714 162.524 15.7748C161.709 15.2311 161.686 14.1703 161.659 13.1476C161.65 12.8097 161.645 12.4923 161.606 12.1984C161.586 12.0397 161.574 11.884 161.562 11.7312C161.547 11.5666 161.533 11.3962 161.509 11.2257C163.515 12.2837 165.439 13.4797 167.265 14.808C167.098 14.8344 166.957 14.8638 166.848 14.8932V14.8903ZM175.954 23.3801C175.595 23.3889 175.189 23.4359 174.76 23.4859C173.589 23.621 172.136 23.7886 171.548 23.1215C170.901 22.3868 171.151 21.3612 171.389 20.3679C171.468 20.0359 171.545 19.7214 171.586 19.4217C171.61 19.2542 171.639 19.0955 171.666 18.9397C171.692 18.7957 171.718 18.6459 171.739 18.4931C173.38 20.0182 174.916 21.661 176.33 23.4065C176.204 23.3918 176.077 23.386 175.948 23.383L175.954 23.3801ZM182.548 33.9417C182.204 33.8594 181.801 33.8006 181.378 33.7389C180.21 33.5685 178.757 33.3539 178.36 32.5546C177.925 31.676 178.43 30.7473 178.922 29.854C179.086 29.5542 179.239 29.2721 179.357 28.9929C179.413 28.8607 179.472 28.7343 179.528 28.6139C179.598 28.461 179.669 28.3053 179.731 28.1466C180.91 30.0303 181.963 32.0021 182.878 34.0533C182.772 34.0122 182.663 33.9769 182.548 33.9446V33.9417ZM186.184 45.8697C185.869 45.6964 185.493 45.5347 185.093 45.3614C184.013 44.8941 182.669 44.3122 182.495 43.4424C182.304 42.4815 183.034 41.7203 183.737 40.9827C183.972 40.7359 184.195 40.5008 184.381 40.2628C184.442 40.1834 184.504 40.107 184.563 40.0306C184.687 39.8778 184.81 39.7191 184.928 39.5516C185.569 41.6527 186.069 43.8127 186.419 46.0284C186.343 45.9755 186.263 45.9226 186.181 45.8727L186.184 45.8697ZM186.607 58.2974C186.351 58.0535 186.034 57.8037 185.698 57.5392C184.772 56.8045 183.616 55.8936 183.678 55.0031C183.742 54.0246 184.645 53.4721 185.519 52.9402C185.807 52.7639 186.081 52.5964 186.322 52.4142L186.525 52.2643C186.681 52.1497 186.837 52.0321 186.987 51.9087C187.063 54.1274 186.981 56.3138 186.757 58.4649C186.71 58.4091 186.663 58.3532 186.61 58.3003L186.607 58.2974ZM183.781 70.4282C183.595 70.1285 183.354 69.8023 183.098 69.4585C182.392 68.5122 181.516 67.3309 181.801 66.4875C182.119 65.5559 183.137 65.2591 184.119 64.9741C184.445 64.88 184.751 64.7889 185.034 64.6743C185.134 64.6332 185.231 64.595 185.325 64.5597C185.472 64.5009 185.619 64.4451 185.763 64.3804C185.266 66.5022 184.628 68.571 183.857 70.5781C183.834 70.5281 183.81 70.4782 183.784 70.4312L183.781 70.4282ZM177.916 81.4189C177.816 81.075 177.666 80.696 177.504 80.2934C177.069 79.1972 176.53 77.8337 177.025 77.0961C177.572 76.285 178.625 76.2586 179.648 76.2321C179.992 76.2233 180.316 76.2145 180.613 76.1763L180.836 76.1498C181.001 76.1293 181.163 76.1116 181.322 76.0852C180.31 77.96 179.178 79.7644 177.93 81.4806C177.925 81.46 177.925 81.4394 177.919 81.4189H177.916ZM169.321 89.3239C169.186 88.1543 169.018 86.6967 169.686 86.1119C170.424 85.4684 171.451 85.7152 172.445 85.9562C172.777 86.0355 173.089 86.1119 173.389 86.1531L173.466 86.1648C173.645 86.1913 173.819 86.2148 173.986 86.2295C172.56 87.737 171.039 89.1564 169.424 90.47C169.412 90.1232 169.368 89.7353 169.321 89.3239ZM159.059 95.9212C159.233 94.7575 159.447 93.3117 160.242 92.9179C161.124 92.4859 162.056 92.9914 162.953 93.4851C163.25 93.6467 163.53 93.7995 163.809 93.917C163.977 93.9876 164.139 94.0552 164.298 94.1139C162.562 95.1836 160.753 96.1416 158.877 96.988C158.947 96.6676 159.003 96.3062 159.059 95.9242V95.9212ZM147.441 99.6416C147.909 98.5631 148.488 97.223 149.362 97.0497C150.324 96.8587 151.085 97.5874 151.827 98.2898C152.074 98.5249 152.309 98.7482 152.547 98.9333C152.674 99.0333 152.794 99.1214 152.915 99.2037C151.003 99.7709 149.038 100.22 147.029 100.55C147.167 100.276 147.303 99.9678 147.444 99.6445L147.441 99.6416ZM135.244 100.238C135.976 99.3154 136.882 98.1722 137.776 98.2251C138.755 98.2898 139.308 99.192 139.841 100.065C140.017 100.356 140.185 100.629 140.367 100.87C140.447 100.973 140.52 101.067 140.597 101.155C140.15 101.167 139.7 101.176 139.255 101.176C137.711 101.176 136.182 101.09 134.667 100.943C134.852 100.729 135.046 100.488 135.246 100.235L135.244 100.238ZM123.308 97.6668C124.258 96.9615 125.434 96.0858 126.284 96.3738C127.214 96.6882 127.511 97.702 127.799 98.6836C127.893 99.0098 127.984 99.3183 128.099 99.5975C128.14 99.6945 128.181 99.7826 128.223 99.8708C126.314 99.4153 124.44 98.8481 122.617 98.1664C122.837 98.0165 123.067 97.846 123.308 97.6668ZM112.46 92.0833C113.557 91.6513 114.919 91.1135 115.66 91.6072C116.475 92.1509 116.502 93.2088 116.525 94.2344C116.534 94.5724 116.54 94.8927 116.578 95.1895C116.59 95.2806 116.607 95.3629 116.622 95.4481C114.916 94.5283 113.266 93.4997 111.684 92.3801C111.928 92.2949 112.187 92.192 112.457 92.0862L112.46 92.0833ZM103.422 83.8991C104.592 83.7639 106.048 83.5964 106.639 84.2694C107.251 84.9658 107.001 86.0737 106.781 87.0523C106.707 87.3726 106.639 87.6782 106.601 87.9633C106.589 88.0485 106.587 88.122 106.578 88.2013C105.175 86.8819 103.848 85.4742 102.607 83.9843C102.863 83.9638 103.136 83.9344 103.422 83.902V83.8991ZM99.8274 74.8245C100.257 75.7002 99.7539 76.6259 99.2627 77.5192C99.098 77.819 98.945 78.104 98.8244 78.3832C98.7891 78.4655 98.7627 78.5419 98.7362 78.6212C97.8891 77.2548 97.1008 75.8383 96.3861 74.3749C96.2802 74.1662 96.1126 73.8253 95.9537 73.5021C96.2184 73.552 96.5067 73.5961 96.8067 73.6402C97.9744 73.8106 99.4303 74.0252 99.8274 74.8274V74.8245ZM142.514 105.293C141.414 105.363 140.332 105.395 139.247 105.395C118.787 105.375 100.245 93.3587 91.88 74.7069L91.1682 73.0701C91.1682 73.0701 90.2447 71.5802 91.6565 71.0042C91.8183 70.9337 91.9918 70.8984 92.1683 70.8925C93.0918 70.8925 93.5066 72.1091 93.5066 72.1091L94.0742 73.3463C94.0742 73.3463 94.6801 74.5688 94.9272 75.086C103.186 92.0245 120.384 102.78 139.244 102.807C140.276 102.807 141.311 102.774 142.35 102.71C169.536 101.011 190.202 77.6192 188.513 50.4541C186.925 24.4321 165.368 4.21112 139.673 4.21112C138.538 4.21112 137.394 4.25226 136.244 4.3316C118.808 5.54821 100.18 16.3243 93.8978 34.6381C93.8978 34.6381 93.436 36.2573 92.3418 36.2573C92.183 36.2573 92.0271 36.225 91.88 36.1692C90.5741 35.6843 91.4183 33.8124 91.4183 33.8124C97.5244 15.8248 116.493 2.96512 136.061 1.74263C137.164 1.6721 138.258 1.63684 139.347 1.63978L139.355 1.62215C168.036 1.6721 191.249 24.9435 191.196 53.6014C191.146 80.9634 169.842 103.585 142.508 105.296L142.514 105.293Z" fill="#106AB0"></path>
</svg>
